HIERARCHY
ROOT Hips
{
	OFFSET 0.000000 0.000000 0.000000 
	CHANNELS 6 Xposition Yposition Zposition Zrotation Yrotation Xrotation
	JOINT LeftUpLeg
	{
		OFFSET 1.363060 -1.794630 0.839290 
		CHANNELS 3 Zrotation Yrotation Xrotation
		JOINT LeftLeg
		{
			OFFSET 2.448110 -6.726130 0.000000 
			CHANNELS 3 Zrotation Yrotation Xrotation
			JOINT LeftFoot
			{
				OFFSET 2.562200 -7.039590 0.000000 
				CHANNELS 3 Zrotation Yrotation Xrotation
				JOINT LeftToeBase
				{
					OFFSET 0.157640 -0.433110 2.322550 
					CHANNELS 3 Zrotation Yrotation Xrotation
					End Site
					{
						OFFSET 0.000000 0.000000 0.000000 
					}
				}
			}
		}
	}
	JOINT RightUpLeg
	{
		OFFSET -1.305520 -1.794630 0.839290 
		CHANNELS 3 Zrotation Yrotation Xrotation
		JOINT RightLeg
		{
			OFFSET -2.542530 -6.985550 0.000000 
			CHANNELS 3 Zrotation Yrotation Xrotation
			JOINT RightFoot
			{
				OFFSET -2.568260 -7.056230 0.000000 
				CHANNELS 3 Zrotation Yrotation Xrotation
				JOINT RightToeBase
				{
					OFFSET -0.164730 -0.452590 2.363150 
					CHANNELS 3 Zrotation Yrotation Xrotation
					End Site
					{
						OFFSET 0.000000 0.000000 0.000000 
					}
				}
			}
		}
	}
	JOINT Spine
	{
		OFFSET 0.028270 2.035590 -0.193380 
		CHANNELS 3 Zrotation Yrotation Xrotation
		JOINT Spine1
		{
			OFFSET 0.056720 2.048850 -0.042750 
			CHANNELS 3 Zrotation Yrotation Xrotation
			JOINT Neck1
			{
				OFFSET -0.054170 1.746240 0.172020 
				CHANNELS 3 Zrotation Yrotation Xrotation
				JOINT Head
				{
					OFFSET 0.104070 1.761360 -0.123970 
					CHANNELS 3 Zrotation Yrotation Xrotation
					End Site
					{
						OFFSET 0.000000 0.000000 0.000000 
					}
				}
			}
			JOINT LeftArm
			{
				OFFSET 3.362410 1.200890 -0.311210 
				CHANNELS 3 Zrotation Yrotation Xrotation
				JOINT LeftForeArm
				{
					OFFSET 4.983000 -0.000000 -0.000000 
					CHANNELS 3 Zrotation Yrotation Xrotation
					JOINT LeftHand
					{
						OFFSET 3.483560 -0.000000 -0.000000 
						CHANNELS 3 Zrotation Yrotation Xrotation
						JOINT LeftHandIndex1
						{
							OFFSET 0.715260 -0.000000 -0.000000 
							CHANNELS 3 Zrotation Yrotation Xrotation
							End Site
							{
								OFFSET 0.000000 0.000000 0.000000 
							}
						}
					}
				}
			}
			JOINT RightArm
			{
				OFFSET -3.136600 1.374050 -0.404650 
				CHANNELS 3 Zrotation Yrotation Xrotation
				JOINT RightForeArm
				{
					OFFSET -5.241900 -0.000000 -0.000000 
					CHANNELS 3 Zrotation Yrotation Xrotation
					JOINT RightHand
					{
						OFFSET -3.444170 -0.000000 -0.000000 
						CHANNELS 3 Zrotation Yrotation Xrotation
						JOINT RightHandIndex1
						{
							OFFSET -0.622530 -0.000000 -0.000000 
							CHANNELS 3 Zrotation Yrotation Xrotation
							End Site
							{
								OFFSET 0.000000 0.000000 0.000000 
							}
						}
					}
				}
			}
		}
	}
}
MOTION
Frames: 10
Frame Time: 0.041667
3.670605 17.689412 5.354203 175.338617 4.991552 -175.015387 -25.119786 -8.996076 -19.053345 2.341307 7.143080 24.034641 -0.304673 2.882662 -5.449554 0.003900 -0.402200 -1.105100 13.065688 13.606595 -10.148716 -11.672216 -16.527332 62.640714 -1.573195 1.063052 21.390025 -0.052100 -1.473100 4.051600 -3.250306 -0.707903 7.773704 -1.221968 -0.396745 -2.760305 -3.976066 0.646423 13.318216 -0.759100 -0.194800 7.692200 -79.684991 5.241882 7.820096 14.829110 -15.822488 -1.740880 -0.450377 -0.723559 9.070121 -7.125000 0.000000 0.000000 66.163420 -1.264019 41.384653 -61.251109 56.084896 -34.823163 0.436892 -0.632968 10.694905 7.125000 0.000000 0.000000 
3.650588 17.689699 5.211596 175.194941 5.107826 -175.083855 -25.473190 -8.606006 -18.307438 2.277980 7.048573 23.678173 -0.238048 2.502809 -5.873052 0.000200 0.096400 0.264900 12.560126 13.992422 -11.882162 -12.232188 -16.799215 64.643425 -1.306867 0.582320 18.891223 -0.046700 -1.395100 3.836700 -3.064090 -0.798408 7.743503 -1.104401 -0.438892 -2.744548 -4.140300 0.801543 13.646245 -0.788400 -0.133500 7.784200 -79.649532 4.292144 9.826842 15.054035 -16.088300 -1.830353 -0.433719 -0.699787 8.668692 -7.125000 0.000000 0.000000 65.802835 -0.977687 41.964274 -61.332923 56.079857 -34.756552 0.372676 -0.686401 10.532801 7.125000 0.000000 0.000000 
3.630572 17.693530 5.067841 175.097033 4.982320 -175.089004 -25.761465 -8.360000 -17.490476 2.206021 6.926320 23.239746 -0.180704 2.120445 -6.057678 -0.000000 0.035300 0.096900 12.152234 14.201210 -13.651735 -12.757086 -17.024989 66.476145 -1.054993 0.251581 16.349196 -0.058400 -1.558800 4.287900 -2.924200 -0.871934 7.788423 -1.071467 -0.481629 -2.605339 -4.383457 0.794997 13.917467 -0.870400 -0.152100 7.864200 -79.447390 3.024371 11.936576 15.163493 -16.196342 -1.887224 -0.438413 -0.689615 8.503068 -7.125000 0.000000 0.000000 65.532640 -0.689049 42.215473 -61.390315 56.094942 -34.799813 0.386400 -0.688271 10.366441 7.125000 0.000000 0.000000 
3.610747 17.705310 4.927054 175.142701 4.680179 -175.196722 -25.903433 -7.868347 -16.674771 2.137016 6.809792 22.802356 -0.104210 1.493414 -5.975662 0.005900 0.497800 1.367900 11.992578 14.239179 -15.216669 -13.228530 -17.200954 68.076403 -0.843922 0.141844 14.034898 -0.045000 -1.368900 3.764400 -2.723651 -1.043075 7.865482 -1.071571 -0.573450 -2.519535 -4.398793 0.824650 14.261516 -0.872000 -0.137400 7.963600 -79.229058 1.641249 13.807963 15.231877 -16.265176 -1.929585 -0.459737 -0.702219 8.450700 -7.125000 0.000000 0.000000 65.286862 -0.390195 42.557920 -61.347949 56.084077 -34.783186 0.366776 -0.689536 10.240671 7.125000 0.000000 0.000000 
3.589772 17.704831 4.792588 175.175262 4.418437 -175.385973 -26.070076 -7.228660 -15.921680 2.068451 6.695364 22.367422 -0.042072 0.967123 -5.877906 0.013000 0.736000 2.022600 11.823094 14.192514 -16.635894 -13.633576 -17.340240 69.437233 -0.682652 0.072253 12.032719 -0.002400 -0.319500 0.877700 -2.571957 -1.078147 7.931748 -1.083086 -0.593031 -2.564666 -4.227375 0.697639 14.535982 -0.836700 -0.176800 8.021400 -79.026994 0.176369 15.728561 15.328667 -16.374667 -1.984154 -0.456402 -0.686932 8.194073 -7.125000 0.000000 0.000000 65.147720 -0.312481 42.597064 -61.488119 56.133586 -34.941891 0.468315 -0.663514 10.217167 7.125000 0.000000 0.000000 
3.568606 17.701479 4.658506 175.082336 4.364945 -175.310782 -26.334489 -6.867411 -15.458972 2.026551 6.631560 22.112307 0.002772 0.687963 -6.084972 0.001800 0.272200 0.747900 11.394869 14.392028 -18.535922 -14.000632 -17.449615 70.685416 -0.578002 -0.278595 10.432211 -0.025800 1.036400 -2.849100 -2.546067 -0.986834 7.849142 -1.086546 -0.551146 -2.548581 -4.278289 0.485067 14.703832 -0.903500 -0.264500 8.043300 -78.877159 -1.302878 17.453983 15.476945 -16.531945 -2.056826 -0.377547 -0.605747 7.946882 -7.125000 0.000000 0.000000 65.051606 -0.329962 42.557023 -61.737880 56.192160 -35.133928 0.421577 -0.679750 10.237034 7.125000 0.000000 0.000000 
3.557401 17.704640 4.518773 175.006163 4.435545 -174.831232 -26.534357 -6.638625 -15.445597 2.020954 6.631351 22.079303 0.055657 0.337205 -6.284449 0.001500 -0.253400 -0.696100 10.954932 14.964487 -20.991186 -14.318671 -17.510947 71.773121 -0.508760 -0.947819 9.141502 -0.112500 2.162700 -5.955400 -2.329920 -1.072269 7.659561 -0.916854 -0.600679 -2.296365 -4.086320 0.485404 15.173470 -0.835800 -0.253900 8.224500 -78.842076 -2.572435 18.782228 15.731937 -16.885808 -2.159793 -0.380249 -0.628697 7.829003 -7.125000 0.000000 0.000000 64.715289 0.042488 43.013320 -61.718047 56.178855 -35.092017 0.383600 -0.694553 10.002541 7.125000 0.000000 0.000000 
3.547153 17.700809 4.379040 175.317813 4.277582 -174.310434 -26.312983 -6.444073 -15.488455 2.015231 6.642727 22.062944 0.115595 -0.135943 -6.338609 0.005200 -0.467900 -1.285700 11.015983 15.403177 -23.059560 -14.532232 -17.524427 72.489624 -0.435758 -1.855985 7.758340 -0.074200 1.757100 -4.834900 -1.785679 -1.227211 7.465527 -0.834457 -0.687012 -2.024119 -3.648134 0.431640 15.665499 -0.664600 -0.257300 8.402600 -78.852087 -3.738472 20.239972 16.058243 -17.359586 -2.298252 -0.410012 -0.650841 7.709921 -7.125000 0.000000 0.000000 64.278730 0.364416 43.415450 -61.596589 56.153040 -35.015888 0.465017 -0.678259 9.568576 7.125000 0.000000 0.000000 
3.524838 17.690753 4.244861 175.373733 3.846519 -174.245926 -26.376823 -6.361009 -15.062818 2.021884 6.669232 22.102840 0.165344 -0.534139 -6.385894 0.022300 -0.963300 -2.647900 10.819324 15.308170 -24.450194 -14.644122 -17.547626 72.893947 -0.364214 -2.795186 6.399854 -0.022800 0.975900 -2.682500 -1.548247 -1.367811 7.322775 -0.819974 -0.757313 -2.070173 -3.525051 0.286183 15.804834 -0.647400 -0.303600 8.403500 -78.845566 -4.796577 21.957799 16.398119 -17.866910 -2.463654 -0.438319 -0.609716 7.827240 -7.125000 0.000000 0.000000 63.967824 0.252801 43.476062 -61.885817 56.226367 -35.244963 0.491577 -0.676790 9.672286 7.125000 0.000000 0.000000 
3.504438 17.687401 4.114131 175.214035 3.431753 -174.345487 -26.652501 -6.287372 -14.553546 2.059279 6.754612 22.335429 0.220076 -0.914889 -6.582050 0.067300 -1.673300 -4.603500 10.427118 15.188090 -25.778233 -14.694660 -17.559815 73.111054 -0.300220 -3.798918 5.218989 -0.006300 0.514600 -1.413900 -1.488276 -1.522591 7.256153 -0.745642 -0.831023 -2.221241 -3.442220 0.183701 16.090937 -0.653600 -0.329500 8.474400 -78.779421 -5.894966 23.616925 16.632118 -18.218262 -2.593968 -0.458666 -0.557430 8.459454 -7.125000 0.000000 0.000000 63.708135 0.266142 43.555525 -62.123991 56.282192 -35.402761 0.421533 -0.704000 10.034395 7.125000 0.000000 0.000000 
